<svg width="144" height="30" viewBox="0 0 144 30" fill="none" xmlns="http://www.w3.org/2000/svg">
<path d="M4.104 18.144C2.904 18.144 1.98 17.784 1.332 17.064C0.804 16.464 0.54 15.744 0.54 14.904C0.54 13.68 0.924 13.068 1.692 13.068C1.98 13.068 2.244 13.176 2.484 13.392C2.724 13.632 2.844 13.908 2.844 14.22C2.844 14.412 2.796 14.568 2.7 14.688C2.388 15.072 2.232 15.492 2.232 15.948C2.232 16.404 2.376 16.776 2.664 17.064C2.976 17.376 3.372 17.532 3.852 17.532C4.356 17.532 4.812 17.364 5.22 17.028C5.772 16.524 6.048 15.828 6.048 14.94C6.048 14.172 5.844 13.308 5.436 12.348C5.268 12.108 5.064 11.796 4.824 11.412C4.608 11.028 4.356 10.572 4.068 10.044C3.9 9.756 3.78 9.468 3.708 9.18C3.66 8.868 3.636 8.568 3.636 8.28C3.636 7.272 4.008 6.468 4.752 5.868C5.52 5.244 6.504 4.932 7.704 4.932C8.04 4.932 8.364 4.968 8.676 5.04C9.012 5.112 9.312 5.244 9.576 5.436C10.128 5.844 10.404 6.348 10.404 6.948C10.404 7.212 10.356 7.452 10.26 7.668C10.044 8.292 9.576 8.604 8.856 8.604C8.064 8.604 7.668 8.196 7.668 7.38C7.668 7.14 7.704 6.936 7.776 6.768C7.848 6.528 8.112 6.288 8.568 6.048C8.4 5.736 8.088 5.58 7.632 5.58C7.224 5.58 6.924 5.676 6.732 5.868C6.156 6.372 5.868 7.008 5.868 7.776C5.868 8.304 6.012 8.88 6.3 9.504C6.348 9.6 6.816 10.356 7.704 11.772C8.304 12.732 8.604 13.536 8.604 14.184C8.604 15.216 8.124 16.128 7.164 16.92C6.204 17.736 5.184 18.144 4.104 18.144ZM8.78484 29.664C8.61684 29.544 8.43684 29.388 8.24484 29.196C8.05284 29.028 7.82484 28.824 7.56084 28.584C7.05684 28.08 6.80484 27.48 6.80484 26.784C6.80484 26.28 6.94884 25.584 7.23684 24.696C7.47684 24 7.87284 22.956 8.42484 21.564C8.95284 20.172 9.66084 18.432 10.5488 16.344C10.8128 15.72 11.1128 14.988 11.4488 14.148C11.7848 13.284 12.1448 12.3 12.5288 11.196C12.6248 10.932 12.7208 10.632 12.8168 10.296C12.9128 9.936 13.0088 9.528 13.1048 9.072C13.1528 8.808 13.1888 8.568 13.2128 8.352C13.2608 8.112 13.2848 7.908 13.2848 7.74C13.2848 6.9 13.0208 6.3 12.4928 5.94L14.2568 5.652C14.4488 5.628 14.6048 5.616 14.7248 5.616C14.8448 5.616 14.9168 5.616 14.9408 5.616C15.3488 5.616 15.5528 6.036 15.5528 6.876C15.5528 8.052 15.2168 9.576 14.5448 11.448C17.0408 7.368 19.0328 5.328 20.5208 5.328C21.2408 5.328 21.8168 5.628 22.2488 6.228C22.6088 6.732 22.7888 7.368 22.7888 8.136C22.7888 9.192 22.5008 10.392 21.9248 11.736C21.3008 13.104 20.5808 14.28 19.7648 15.264C18.2048 17.112 16.4528 18.036 14.5088 18.036C13.6208 18.036 12.8048 17.808 12.0608 17.352C11.6048 18.504 11.1848 19.668 10.8008 20.844C10.4408 22.044 10.0928 23.268 9.75684 24.516C9.06084 27.012 8.73684 28.728 8.78484 29.664ZM13.5008 17.244C14.9888 17.244 16.6448 15.972 18.4688 13.428C20.2448 10.956 21.1328 8.976 21.1328 7.488C21.1328 6.72 20.8088 6.336 20.1608 6.336C19.2488 6.336 18.2408 7.104 17.1368 8.64C16.5368 9.504 15.8288 10.62 15.0128 11.988C14.2208 13.356 13.3328 14.964 12.3488 16.812C12.6368 17.1 13.0208 17.244 13.5008 17.244ZM22.0514 18.252C22.5074 17.1 23.1074 15.66 23.8514 13.932C24.6194 12.204 25.4834 10.236 26.4434 8.028C26.6354 7.548 26.8154 7.164 26.9834 6.876C27.1754 6.588 27.3434 6.36 27.4874 6.192C27.7994 5.832 28.2194 5.688 28.7474 5.76L29.5034 5.868C29.6714 5.892 29.8154 5.916 29.9354 5.94C30.0794 5.94 30.1994 5.928 30.2954 5.904C29.8154 6.144 29.2514 6.828 28.6034 7.956C27.9794 9.06 27.2834 10.572 26.5154 12.492C26.7794 12.156 27.1154 11.712 27.5234 11.16C27.9314 10.584 28.4474 9.924 29.0714 9.18C29.7674 8.364 30.4874 7.608 31.2314 6.912C31.9754 6.216 32.6954 5.868 33.3914 5.868C33.9434 5.868 34.3394 6.048 34.5794 6.408C34.8194 6.768 34.9394 7.176 34.9394 7.632C34.9394 8.184 34.7234 8.676 34.2914 9.108C33.8594 9.54 33.4394 9.756 33.0314 9.756C32.8634 9.756 32.6834 9.72 32.4914 9.648C32.3234 9.576 32.2394 9.468 32.2394 9.324C32.2394 9.204 32.2634 9.096 32.3114 9C32.3594 8.88 32.3834 8.748 32.3834 8.604C32.3834 8.244 32.2154 8.064 31.8794 8.064C31.7594 8.064 31.5914 8.1 31.3754 8.172C31.1834 8.22 30.9194 8.412 30.5834 8.748C29.9114 9.372 29.1794 10.128 28.3874 11.016C27.6194 11.88 26.8874 12.852 26.1914 13.932C25.5194 15.012 24.9674 16.2 24.5354 17.496C24.4154 17.856 24.0554 18.048 23.4554 18.072C22.6394 18.12 22.1714 18.18 22.0514 18.252ZM36.2686 18C34.5166 18 33.6406 16.932 33.6406 14.796C33.6406 13.74 33.8926 12.624 34.3966 11.448C35.1166 9.744 36.1366 8.304 37.4566 7.128C38.7526 5.976 39.9766 5.4 41.1286 5.4C42.9046 5.4 43.7926 6.444 43.7926 8.532C43.7926 9.612 43.5286 10.752 43.0006 11.952C42.3766 13.392 41.4766 14.7 40.3006 15.876C38.8366 17.292 37.4926 18 36.2686 18ZM36.8446 17.208C37.3966 17.208 37.9846 16.98 38.6086 16.524C39.4006 15.948 40.3006 14.748 41.3086 12.924C42.4126 10.956 42.9646 9.372 42.9646 8.172C42.9646 7.092 42.5086 6.552 41.5966 6.552C40.8766 6.552 40.0606 7.008 39.1486 7.92C38.2606 8.808 37.5046 9.936 36.8806 11.304C36.0406 13.104 35.6206 14.544 35.6206 15.624C35.6206 16.68 36.0286 17.208 36.8446 17.208ZM46.2428 17.964C44.7068 17.964 43.9388 17.244 43.9388 15.804C43.9388 15.3 44.0828 14.628 44.3708 13.788C44.6588 12.924 45.0668 11.904 45.5948 10.728L47.5748 6.372C47.7908 5.868 48.2588 5.616 48.9788 5.616H51.1388C50.2988 6.24 49.5308 7.248 48.8348 8.64C48.5708 9.168 48.2468 9.828 47.8628 10.62C47.5028 11.388 47.0828 12.276 46.6028 13.284C46.1468 14.22 45.9188 15.06 45.9188 15.804C45.9188 16.572 46.1828 16.956 46.7108 16.956C47.2868 16.956 47.9708 16.5 48.7628 15.588C50.0828 14.052 51.8588 10.98 54.0908 6.372C54.3548 5.868 54.8108 5.616 55.4588 5.616H57.4028C56.6108 6.264 55.7828 7.452 54.9188 9.18C53.7188 11.604 52.9988 13.452 52.7588 14.724C52.7348 14.868 52.7108 15 52.6868 15.12C52.6868 15.24 52.6868 15.36 52.6868 15.48C52.6868 16.416 53.0108 16.884 53.6588 16.884C54.3548 16.884 55.1708 16.2 56.1068 14.832L56.6468 15.084C55.3508 17.004 54.0668 17.964 52.7948 17.964C51.4508 17.964 50.7788 17.112 50.7788 15.408C50.7788 14.76 50.8988 14.076 51.1388 13.356C49.3628 16.428 47.7308 17.964 46.2428 17.964ZM60.4997 18C58.9397 18 58.1597 17.148 58.1597 15.444C58.1597 15.108 58.1837 14.76 58.2317 14.4C58.3037 14.04 58.4117 13.68 58.5557 13.32C59.8277 9.96 60.9077 7.224 61.7957 5.112H59.4557L59.8877 4.32H62.1197L62.9837 1.8C63.2957 0.911999 63.5597 0.383999 63.7757 0.215999C63.9437 0.0959995 64.3277 0.0359995 64.9277 0.0359995L66.4757 0.0719991C65.9957 0.479999 65.6357 0.971999 65.3957 1.548L64.2077 4.32H66.9437L66.5117 5.112H63.8837C63.7157 5.496 63.5477 5.88 63.3797 6.264C63.2357 6.648 63.0677 7.044 62.8757 7.452C62.3717 8.556 61.9397 9.6 61.5797 10.584C61.1477 11.712 60.7997 12.684 60.5357 13.5C60.2957 14.316 60.1517 14.964 60.1037 15.444C60.0077 16.62 60.3197 17.208 61.0397 17.208C61.7117 17.208 62.5277 16.488 63.4877 15.048L63.9197 15.552C62.7677 17.184 61.6277 18 60.4997 18ZM70.9307 4.068C70.1147 4.068 69.7067 3.672 69.7067 2.88C69.7067 2.088 70.0907 1.692 70.8587 1.692C71.6747 1.692 72.0827 2.088 72.0827 2.88C72.0827 3.672 71.6987 4.068 70.9307 4.068ZM59.7707 27.396C59.1947 27.396 58.6787 27.288 58.2227 27.072C57.7667 26.88 57.4067 26.568 57.1427 26.136C56.9507 25.848 56.8187 25.38 56.7467 24.732C56.7227 24.612 56.7107 24.504 56.7107 24.408C56.7107 24.336 56.7107 24.252 56.7107 24.156C56.7107 23.844 56.7467 23.58 56.8187 23.364L57.4307 23.328C57.4067 23.448 57.3947 23.58 57.3947 23.724C57.3707 23.868 57.3587 24 57.3587 24.12C57.3587 24.864 57.5147 25.428 57.8267 25.812C58.1147 26.196 58.5227 26.388 59.0507 26.388C59.6267 26.388 60.1667 26.16 60.6707 25.704C61.1507 25.248 61.6427 24.564 62.1467 23.652C62.3387 23.292 62.5907 22.764 62.9027 22.068C63.1907 21.396 63.5387 20.544 63.9467 19.512C64.4747 18.192 65.1107 16.524 65.8547 14.508C66.5987 12.492 67.4627 10.128 68.4467 7.416C68.4707 7.344 68.4827 7.236 68.4827 7.092C68.4827 6.78 68.3147 6.396 67.9787 5.94L70.2107 5.904C70.8827 5.904 71.2187 6.024 71.2187 6.264C71.2187 6.384 71.1467 6.612 71.0027 6.948L64.4507 23.616C63.9467 24.912 63.2867 25.86 62.4707 26.46C61.6547 27.084 60.7547 27.396 59.7707 27.396ZM74.0264 18C72.2744 18 71.3984 16.932 71.3984 14.796C71.3984 13.74 71.6504 12.624 72.1544 11.448C72.8744 9.744 73.8944 8.304 75.2144 7.128C76.5104 5.976 77.7344 5.4 78.8864 5.4C80.6624 5.4 81.5504 6.444 81.5504 8.532C81.5504 9.612 81.2864 10.752 80.7584 11.952C80.1344 13.392 79.2344 14.7 78.0584 15.876C76.5944 17.292 75.2504 18 74.0264 18ZM74.6024 17.208C75.1544 17.208 75.7424 16.98 76.3664 16.524C77.1584 15.948 78.0584 14.748 79.0664 12.924C80.1704 10.956 80.7224 9.372 80.7224 8.172C80.7224 7.092 80.2664 6.552 79.3544 6.552C78.6344 6.552 77.8184 7.008 76.9064 7.92C76.0184 8.808 75.2624 9.936 74.6384 11.304C73.7984 13.104 73.3784 14.544 73.3784 15.624C73.3784 16.68 73.7864 17.208 74.6024 17.208ZM84.0007 17.964C82.4647 17.964 81.6967 17.244 81.6967 15.804C81.6967 15.3 81.8407 14.628 82.1287 13.788C82.4167 12.924 82.8247 11.904 83.3527 10.728L85.3327 6.372C85.5487 5.868 86.0167 5.616 86.7367 5.616H88.8967C88.0567 6.24 87.2887 7.248 86.5927 8.64C86.3287 9.168 86.0047 9.828 85.6207 10.62C85.2607 11.388 84.8407 12.276 84.3607 13.284C83.9047 14.22 83.6767 15.06 83.6767 15.804C83.6767 16.572 83.9407 16.956 84.4687 16.956C85.0447 16.956 85.7287 16.5 86.5207 15.588C87.8407 14.052 89.6167 10.98 91.8487 6.372C92.1127 5.868 92.5687 5.616 93.2167 5.616H95.1607C94.3687 6.264 93.5407 7.452 92.6767 9.18C91.4767 11.604 90.7567 13.452 90.5167 14.724C90.4927 14.868 90.4687 15 90.4447 15.12C90.4447 15.24 90.4447 15.36 90.4447 15.48C90.4447 16.416 90.7687 16.884 91.4167 16.884C92.1127 16.884 92.9287 16.2 93.8647 14.832L94.4047 15.084C93.1087 17.004 91.8247 17.964 90.5527 17.964C89.2087 17.964 88.5367 17.112 88.5367 15.408C88.5367 14.76 88.6567 14.076 88.8967 13.356C87.1207 16.428 85.4887 17.964 84.0007 17.964ZM94.2975 18.252C94.7535 17.1 95.3535 15.66 96.0975 13.932C96.8655 12.204 97.7295 10.236 98.6895 8.028C98.8815 7.548 99.0615 7.164 99.2295 6.876C99.4215 6.588 99.5895 6.36 99.7335 6.192C100.046 5.832 100.466 5.688 100.994 5.76L101.75 5.868C101.918 5.892 102.062 5.916 102.182 5.94C102.326 5.94 102.446 5.928 102.542 5.904C102.062 6.144 101.498 6.828 100.85 7.956C100.226 9.06 99.5295 10.572 98.7615 12.492C99.0255 12.156 99.3615 11.712 99.7695 11.16C100.178 10.584 100.694 9.924 101.318 9.18C102.014 8.364 102.734 7.608 103.478 6.912C104.222 6.216 104.942 5.868 105.638 5.868C106.19 5.868 106.586 6.048 106.826 6.408C107.066 6.768 107.186 7.176 107.186 7.632C107.186 8.184 106.97 8.676 106.538 9.108C106.106 9.54 105.686 9.756 105.278 9.756C105.11 9.756 104.93 9.72 104.738 9.648C104.57 9.576 104.486 9.468 104.486 9.324C104.486 9.204 104.51 9.096 104.558 9C104.606 8.88 104.63 8.748 104.63 8.604C104.63 8.244 104.462 8.064 104.126 8.064C104.006 8.064 103.838 8.1 103.622 8.172C103.43 8.22 103.166 8.412 102.83 8.748C102.158 9.372 101.426 10.128 100.634 11.016C99.8655 11.88 99.1335 12.852 98.4375 13.932C97.7655 15.012 97.2135 16.2 96.7815 17.496C96.6615 17.856 96.3015 18.048 95.7015 18.072C94.8855 18.12 94.4175 18.18 94.2975 18.252ZM104.915 18.252C105.395 17.076 105.995 15.624 106.715 13.896C107.435 12.168 108.311 10.176 109.343 7.92C109.559 7.44 109.763 7.044 109.955 6.732C110.147 6.42 110.327 6.18 110.495 6.012C110.831 5.676 111.263 5.508 111.791 5.508C111.839 5.508 111.923 5.508 112.043 5.508C112.163 5.508 112.331 5.532 112.547 5.58C112.883 5.604 113.135 5.604 113.303 5.58C112.415 6.108 111.083 8.436 109.307 12.564C109.595 12.156 109.979 11.712 110.459 11.232C110.963 10.728 111.551 10.176 112.223 9.576C112.655 9.168 113.135 8.784 113.663 8.424C114.191 8.04 114.767 7.68 115.391 7.344C116.807 6.552 117.851 6.156 118.523 6.156C118.691 6.156 118.811 6.168 118.883 6.192C118.499 6.864 118.139 7.512 117.803 8.136C117.491 8.76 117.191 9.348 116.903 9.9C115.511 12.588 114.731 14.448 114.563 15.48C114.539 15.648 114.515 15.804 114.491 15.948C114.491 16.092 114.491 16.224 114.491 16.344C114.491 16.968 114.719 17.28 115.175 17.28C115.919 17.28 116.807 16.524 117.839 15.012L118.343 15.372C117.119 17.22 115.883 18.144 114.635 18.144C113.123 18.144 112.367 17.364 112.367 15.804C112.367 14.532 113.147 12.648 114.707 10.152C114.947 9.768 115.067 9.444 115.067 9.18C115.067 8.892 114.935 8.748 114.671 8.748C114.407 8.748 114.059 8.892 113.627 9.18C113.219 9.444 112.727 9.84 112.151 10.368C111.239 11.208 110.387 12.216 109.595 13.392C108.803 14.544 108.083 15.864 107.435 17.352C107.291 17.712 106.919 17.928 106.319 18C105.551 18.072 105.083 18.156 104.915 18.252ZM122.66 18.144C121.724 18.144 120.92 17.844 120.248 17.244C119.888 16.908 119.624 16.524 119.456 16.092C119.312 15.636 119.24 15.12 119.24 14.544C119.24 12.336 120.152 10.14 121.976 7.956C123.512 6.108 125.108 5.184 126.764 5.184C127.316 5.184 127.784 5.328 128.168 5.616C128.576 5.952 128.78 6.384 128.78 6.912C128.78 8.232 127.904 9.552 126.152 10.872C125.6 11.28 124.868 11.64 123.956 11.952C122.948 12.288 122.216 12.456 121.76 12.456C121.424 13.272 121.256 14.136 121.256 15.048C121.256 16.608 121.832 17.388 122.984 17.388C124.496 17.388 125.912 16.404 127.232 14.436L127.376 14.22L127.988 14.472L127.88 14.688C127.28 15.888 126.524 16.764 125.612 17.316C124.7 17.868 123.716 18.144 122.66 18.144ZM121.976 11.844C122.384 11.844 122.948 11.712 123.668 11.448C124.076 11.28 124.46 11.1 124.82 10.908C125.204 10.716 125.54 10.5 125.828 10.26C127.148 9.156 127.808 7.992 127.808 6.768C127.808 6.24 127.616 5.976 127.232 5.976C126.56 5.976 125.54 6.804 124.172 8.46C123.476 9.3 122.744 10.428 121.976 11.844ZM128.408 27.396C127.111 27.396 126.151 26.976 125.527 26.136C125.263 25.728 125.131 25.188 125.131 24.516C125.131 23.988 125.203 23.604 125.347 23.364L126.031 23.328C125.887 23.712 125.815 24.084 125.815 24.444C125.815 25.74 126.571 26.388 128.084 26.388C129.404 26.388 130.771 25.356 132.188 23.292C132.715 22.524 133.256 21.6 133.808 20.52C134.36 19.44 134.912 18.204 135.464 16.812C135.848 15.9 136.208 14.988 136.544 14.076C136.904 13.164 137.264 12.252 137.624 11.34C137 12.444 136.472 13.344 136.04 14.04C135.632 14.736 135.332 15.216 135.14 15.48C133.892 17.16 132.668 18 131.468 18C130.124 18 129.452 17.124 129.452 15.372C129.452 14.22 129.716 12.996 130.244 11.7C131.012 9.828 131.804 8.064 132.62 6.408C132.884 5.904 133.34 5.652 133.988 5.652H135.896C135.224 6.132 134.516 7.14 133.772 8.676C132.092 12.06 131.252 14.472 131.252 15.912C131.252 16.704 131.54 17.1 132.116 17.1C133.22 17.1 134.624 15.6 136.328 12.6C136.448 12.36 136.772 11.724 137.3 10.692C137.828 9.636 138.536 8.196 139.424 6.372C139.688 5.868 140.144 5.616 140.792 5.616H143.096C142.784 5.856 142.352 6.288 141.8 6.912C141.608 7.224 141.368 7.632 141.08 8.136C140.816 8.64 140.528 9.252 140.216 9.972C139.832 10.908 139.328 12.192 138.704 13.824C138.08 15.432 137.276 17.376 136.292 19.656C135.788 20.856 135.284 21.876 134.78 22.716C134.3 23.58 133.856 24.276 133.448 24.804C132.056 26.532 130.376 27.396 128.408 27.396Z" fill="#5E454B"/>
</svg>
